# xmcd
# 
# Track frame offsets:
#     150
#     19322
#     38667
#     53952
#     69305
#     93177
#     107002
#     119857
#     137377
#     158722
# 
# Disc length: 2298
# 
# Revision: 2
# Processed by: cddbd v1.5.2PL0 Copyright (c) Steve Scherf et al.
# Submitted via: BonkEnc v1.0
# 
DISCID=7f08f80a
DTITLE=super 10 country - Super 10 Vol. II
DYEAR=0
DGENRE=
TTITLE0=Grandpa (Tell Me 'bout The Good Old Days
TTITLE1=Lost In The Fifties Tonight (In The Still Of The Night)
TTITLE2=Nobody Falls Like A Fool
TTITLE3=Repetitive Regret
TTITLE4=She And I
TTITLE5=Til I Loved You
TTITLE6=Sweet Mother Texas
TTITLE7=Some Girls Have All The Luck
TTITLE8=With You
TTITLE9=Old Flame
EXTD=
EXTT0=The Judds\n
EXTT1=Ronnie Milsap\n
EXTT2=Earl Thomas Conley\n
EXTT3=Eddie Rabbit\n
EXTT4=Alabama\n
EXTT5=Restless Heart\n
EXTT6=Waylon Jennings\n
EXTT7=Louise Mandrell \n
EXTT8=Vince Gill\n
EXTT9=Juice Newton\n
PLAYORDER=
